<svg width="1200" height="630" viewBox="0 0 1200 630" fill="none" xmlns="http://www.w3.org/2000/svg" role="img" aria-labelledby="title desc">
  <title id="title">G-Scores dashboard thumbnail</title>
  <desc id="desc">Modern dashboard preview for Vietnam National Exam 2024 score analytics.</desc>
  <defs>
    <filter id="softShadow" x="-20%" y="-20%" width="140%" height="140%" color-interpolation-filters="sRGB">
      <feDropShadow dx="0" dy="18" stdDeviation="24" flood-color="#0D1F1A" flood-opacity="0.18"/>
    </filter>
    <filter id="smallShadow" x="-20%" y="-20%" width="140%" height="140%" color-interpolation-filters="sRGB">
      <feDropShadow dx="0" dy="8" stdDeviation="12" flood-color="#0D1F1A" flood-opacity="0.12"/>
    </filter>
  </defs>

  <rect width="1200" height="630" fill="#F7FAF8"/>
  <rect x="0" y="0" width="1200" height="630" fill="#EAF6F0"/>
  <path d="M0 0H1200V166C1047 198 940 148 808 132C600 106 482 211 301 180C174 158 95 102 0 123V0Z" fill="#10201B"/>
  <path d="M0 497C150 472 270 501 421 532C615 572 743 526 920 497C1030 479 1125 482 1200 508V630H0V497Z" fill="#DFF7EA"/>

  <g transform="translate(78 78)" filter="url(#smallShadow)">
    <rect width="96" height="96" rx="24" fill="#11A88A"/>
    <path d="M29 50C29 34.5 40.3 24 56.8 24C67.2 24 75.2 27.9 80.7 35.1L68.3 44.4C65.6 40.8 62 39 57.2 39C48.7 39 43 45.4 43 54.6C43 64.1 49.1 70.4 58.8 70.4C62.7 70.4 66.1 69.7 69 68.2V61.8H56V48H83V76.4C76.5 81.5 67.5 84.2 57.8 84.2C40.5 84.2 29 70.4 29 50Z" fill="#F7FAF8"/>
    <path d="M23 69C35 58.8 45 60.2 55 55.2C66.4 49.5 70.4 39.4 82 34" stroke="#F2C94C" stroke-width="6" stroke-linecap="round"/>
  </g>

  <text x="196" y="118" fill="#F7FAF8" font-family="Inter, Segoe UI, Arial, sans-serif" font-size="58" font-weight="800">G-Scores</text>
  <text x="198" y="158" fill="#B9EAD7" font-family="Inter, Segoe UI, Arial, sans-serif" font-size="23" font-weight="600">Vietnam National Exam 2024 analytics</text>

  <g transform="translate(84 216)" filter="url(#softShadow)">
    <rect width="1032" height="330" rx="28" fill="#FFFFFF"/>
    <rect x="0" y="0" width="1032" height="72" rx="28" fill="#10201B"/>
    <rect x="0" y="46" width="1032" height="54" fill="#10201B"/>
    <text x="36" y="46" fill="#F7FAF8" font-family="Inter, Segoe UI, Arial, sans-serif" font-size="24" font-weight="800">Score Overview</text>
    <rect x="785" y="20" width="94" height="32" rx="16" fill="#DFF7EA"/>
    <text x="807" y="42" fill="#10201B" font-family="Inter, Segoe UI, Arial, sans-serif" font-size="14" font-weight="800">EN</text>
    <rect x="892" y="20" width="104" height="32" rx="16" fill="#1B342B"/>
    <circle cx="910" cy="36" r="9" fill="#F2C94C"/>
    <text x="929" y="42" fill="#DFF7EA" font-family="Inter, Segoe UI, Arial, sans-serif" font-size="14" font-weight="800">LIGHT</text>

    <g transform="translate(36 112)">
      <rect width="260" height="176" rx="18" fill="#F7FAF8" stroke="#D8E9E1"/>
      <text x="24" y="38" fill="#52645D" font-family="Inter, Segoe UI, Arial, sans-serif" font-size="15" font-weight="700">LOOKUP</text>
      <rect x="24" y="62" width="212" height="44" rx="12" fill="#FFFFFF" stroke="#B7D2C7"/>
      <text x="42" y="90" fill="#10201B" font-family="Inter, Segoe UI, Arial, sans-serif" font-size="17" font-weight="700">01000001</text>
      <rect x="24" y="124" width="106" height="36" rx="18" fill="#11A88A"/>
      <text x="50" y="147" fill="#FFFFFF" font-family="Inter, Segoe UI, Arial, sans-serif" font-size="14" font-weight="800">SEARCH</text>
      <circle cx="210" cy="142" r="18" fill="#FF6B5F"/>
      <path d="M202 142H218M210 134V150" stroke="#FFFFFF" stroke-width="4" stroke-linecap="round"/>
    </g>

    <g transform="translate(328 112)">
      <rect width="332" height="176" rx="18" fill="#F7FAF8" stroke="#D8E9E1"/>
      <text x="24" y="38" fill="#52645D" font-family="Inter, Segoe UI, Arial, sans-serif" font-size="15" font-weight="700">SCORE LEVELS</text>
      <rect x="32" y="118" width="38" height="26" rx="8" fill="#11A88A"/>
      <rect x="86" y="84" width="38" height="60" rx="8" fill="#2F80ED"/>
      <rect x="140" y="61" width="38" height="83" rx="8" fill="#F2C94C"/>
      <rect x="194" y="36" width="38" height="108" rx="8" fill="#FF6B5F"/>
      <rect x="248" y="96" width="38" height="48" rx="8" fill="#8B5CF6"/>
      <line x1="24" y1="144" x2="304" y2="144" stroke="#B7D2C7" stroke-width="2"/>
      <text x="24" y="165" fill="#52645D" font-family="Inter, Segoe UI, Arial, sans-serif" font-size="13" font-weight="700">&gt;=8</text>
      <text x="88" y="165" fill="#52645D" font-family="Inter, Segoe UI, Arial, sans-serif" font-size="13" font-weight="700">6-8</text>
      <text x="143" y="165" fill="#52645D" font-family="Inter, Segoe UI, Arial, sans-serif" font-size="13" font-weight="700">4-6</text>
      <text x="199" y="165" fill="#52645D" font-family="Inter, Segoe UI, Arial, sans-serif" font-size="13" font-weight="700">&lt;4</text>
    </g>

    <g transform="translate(692 112)">
      <rect width="304" height="176" rx="18" fill="#F7FAF8" stroke="#D8E9E1"/>
      <text x="24" y="38" fill="#52645D" font-family="Inter, Segoe UI, Arial, sans-serif" font-size="15" font-weight="700">TOP GROUP A</text>
      <rect x="24" y="58" width="256" height="32" rx="10" fill="#FFFFFF"/>
      <rect x="24" y="102" width="256" height="32" rx="10" fill="#FFFFFF"/>
      <rect x="24" y="146" width="190" height="10" rx="5" fill="#B7D2C7"/>
      <circle cx="43" cy="74" r="8" fill="#F2C94C"/>
      <circle cx="43" cy="118" r="8" fill="#11A88A"/>
      <text x="64" y="80" fill="#10201B" font-family="Inter, Segoe UI, Arial, sans-serif" font-size="16" font-weight="800">29.45</text>
      <text x="64" y="124" fill="#10201B" font-family="Inter, Segoe UI, Arial, sans-serif" font-size="16" font-weight="800">29.20</text>
      <text x="196" y="80" fill="#52645D" font-family="Inter, Segoe UI, Arial, sans-serif" font-size="13" font-weight="700">M-P-C</text>
      <text x="196" y="124" fill="#52645D" font-family="Inter, Segoe UI, Arial, sans-serif" font-size="13" font-weight="700">M-P-C</text>
    </g>
  </g>
</svg>
